<svg width="423" height="91" viewBox="0 0 423 91" fill="none" xmlns="http://www.w3.org/2000/svg">
<g filter="url(#filter0_d_2_42)">
<path d="M219.872 0.51265C220.407 0.532368 221.471 0.576733 221.999 0.59645L221.745 0.044364C222.451 0.0197174 223.165 0.00492933 223.878 0C223.83 27.6535 223.851 55.3071 223.871 82.9557C222.513 82.931 221.162 82.9113 219.81 82.8866C219.989 55.4303 219.872 27.969 219.872 0.51265Z" fill="black"/>
<path d="M379.647 0.182385C380.937 0.409134 382.261 0.527437 383.591 0.601377C383.53 28.0331 383.468 55.4648 383.619 82.8916C382.261 82.9113 380.902 82.931 379.551 82.9556C379.674 55.3613 379.482 27.7718 379.647 0.182385Z" fill="black"/>
<path d="M4.51372 0.497861C5.13795 0.492932 5.76904 0.492931 6.39326 0.492931C6.33839 27.9789 6.3521 55.4648 6.3864 82.9507C5.75531 82.9409 5.13109 82.9359 4.5 82.931C4.52744 55.45 4.50686 27.9739 4.51372 0.497861Z" fill="black"/>
<path d="M15.2079 0.532368C16.573 0.52251 17.938 0.51265 19.31 0.502792C19.2757 27.9789 19.2757 55.45 19.31 82.9211C17.9449 82.9162 16.5798 82.9162 15.2148 82.9162C15.4274 60.3103 15.2422 37.6995 15.3039 15.0985C15.2491 10.2431 15.4206 5.38776 15.2079 0.532368Z" fill="black"/>
<path d="M26.9516 0.492931C28.3716 0.507719 29.7846 0.512649 31.1977 0.50772C31.1634 27.9838 31.1703 55.4599 31.1909 82.9359C29.7778 82.9261 28.3647 82.931 26.9516 82.9458C27.0065 55.4599 26.9996 27.9789 26.9516 0.492931Z" fill="black"/>
<path d="M49.8079 0.522508C51.6463 0.522508 53.4847 0.522509 55.3162 0.488003C55.2819 27.9739 55.2888 55.4549 55.3162 82.9359C53.4847 82.9211 51.6532 82.9162 49.8285 82.931C49.8422 55.4599 49.8697 27.9887 49.8079 0.522508Z" fill="black"/>
<path d="M71.457 0.492931C74.7153 0.532365 77.9736 0.512648 81.232 0.50279C81.1977 27.9838 81.1908 55.4648 81.232 82.9458C77.9736 82.9063 74.7085 82.9162 71.4433 82.9409C71.5119 55.4599 71.4913 27.9739 71.457 0.492931Z" fill="black"/>
<path d="M86.6717 0.497861C87.6183 0.502791 88.5649 0.49786 89.5184 0.492931C89.4498 27.9739 89.4704 55.4599 89.5116 82.9409C88.5718 82.931 87.632 82.9359 86.6991 82.9409C86.7128 55.4599 86.7608 27.9789 86.6717 0.497861Z" fill="black"/>
<path d="M98.9847 0.492931C99.6364 0.512648 100.281 0.527436 100.933 0.547154C100.83 2.11468 101.132 3.71178 100.597 5.24973C101.255 8.83335 100.761 12.4958 100.857 16.109C100.569 16.9125 100.514 17.7456 100.871 18.5441C100.94 19.5349 100.953 20.5454 100.604 21.5165C101.207 23.6213 100.775 25.7853 100.899 27.9148C100.775 30.2168 101.194 32.5483 100.624 34.8257C101.029 36.1221 101.043 37.4727 100.617 38.7642C101.194 41.0366 100.782 43.3534 100.899 45.6456C100.782 47.6222 101.2 49.6383 100.597 51.5854C101.159 53.1973 100.899 54.8782 100.741 56.5147C100.926 58.9695 101.139 61.4638 100.631 63.9087C101.262 70.2084 100.686 76.5623 100.926 82.8817C100.281 82.9014 99.6364 82.9211 98.9916 82.9409C99.0259 55.4599 99.0396 27.9739 98.9847 0.492931Z" fill="black"/>
<path d="M133.866 0.527437C134.861 0.512649 135.848 0.502791 136.843 0.488003C136.823 27.969 136.823 55.45 136.843 82.931C135.842 82.9211 134.847 82.9162 133.852 82.9162C133.989 55.4549 133.955 27.9887 133.866 0.527437Z" fill="black"/>
<path d="M142.139 0.522508C145.418 0.50772 148.703 0.537297 151.989 0.488003C151.934 27.9739 151.948 55.4599 151.982 82.9458C148.697 82.9014 145.418 82.9211 142.139 82.9211C142.221 55.4549 142.221 27.9887 142.139 0.522508Z" fill="black"/>
<path d="M157.113 0.507722C158.389 0.517581 159.672 0.512651 160.955 0.507722C160.934 27.9789 160.962 55.45 160.941 82.9261C159.658 82.9211 158.382 82.9261 157.106 82.9359C157.045 72.3231 157.333 61.7004 156.962 51.0974C157.065 50.2742 157.141 49.4461 157.141 48.6229C157.106 32.5829 157.154 16.5478 157.113 0.507722Z" fill="black"/>
<path d="M169.159 0.51758C170.222 0.51758 171.278 0.51758 172.349 0.51758C172.328 27.9937 172.335 55.4648 172.342 82.9408C171.272 82.9261 170.208 82.9162 169.145 82.9113C169.214 55.4451 169.179 27.9789 169.159 0.51758Z" fill="black"/>
<path d="M181.986 0.483076C182.309 0.502793 182.954 0.537297 183.276 0.557014C183.228 27.9986 183.221 55.4401 183.283 82.8817C182.954 82.9014 182.309 82.9359 181.98 82.9507C182.021 55.4648 182.007 27.9739 181.986 0.483076Z" fill="black"/>
<path d="M192.907 0.51265C193.867 0.51265 194.835 0.507721 195.802 0.502792C195.774 27.9789 195.774 55.4599 195.802 82.9409C194.835 82.931 193.867 82.931 192.9 82.9359C192.982 55.4599 192.969 27.9838 192.907 0.51265Z" fill="black"/>
<path d="M203.183 0.512649C205.22 0.50772 207.264 0.507719 209.308 0.527437C209.089 4.56456 209.59 8.62139 209.041 12.6437C209.452 14.438 209.233 16.2618 209.274 18.0709C209.302 39.686 209.219 61.3011 209.315 82.9162C207.264 82.9211 205.227 82.9261 203.183 82.9261C203.19 55.4549 203.19 27.9838 203.183 0.512649Z" fill="black"/>
<path d="M233.351 0.423922C233.578 0.433781 234.031 0.44857 234.264 0.453499C234.243 27.969 234.271 55.4796 234.25 82.9951C234.024 82.9951 233.571 83 233.345 83C233.331 55.4746 233.324 27.9493 233.351 0.423922Z" fill="black"/>
<path d="M241.645 0.50279C244.224 0.517578 246.81 0.522507 249.396 0.492931C249.382 27.9789 249.362 55.4599 249.403 82.9458C246.817 82.9063 244.238 82.9211 241.652 82.931C241.672 55.4549 241.7 27.9789 241.645 0.50279Z" fill="black"/>
<path d="M255.316 0.527437C256.681 0.522508 258.039 0.522509 259.411 0.51758C259.391 27.9887 259.377 55.4599 259.411 82.9359C258.046 82.9261 256.688 82.9211 255.33 82.9113C255.522 62.2771 255.357 41.643 255.412 21.0088C255.357 14.1817 255.529 7.35455 255.316 0.527437Z" fill="black"/>
<path d="M268.185 0.497861C268.932 0.512649 269.687 0.527437 270.441 0.542225C270.352 27.9986 270.352 55.4549 270.441 82.9063C269.666 82.9162 268.898 82.931 268.137 82.9408C267.931 65.9347 268.102 48.9186 268.047 31.9075C268.137 21.4376 267.869 10.9628 268.185 0.497861Z" fill="black"/>
<path d="M277.994 0.522509C280.018 0.51265 282.041 0.51265 284.065 0.522509C284.044 27.9887 284.051 55.4599 284.065 82.931C282.034 82.9211 280.011 82.9211 277.994 82.9113C278.104 55.45 278.097 27.9838 277.994 0.522509Z" fill="black"/>
<path d="M291.247 0.507722C292.303 0.517581 293.366 0.532368 294.43 0.547156C294.382 27.9936 294.327 55.4451 294.457 82.8916C293.387 82.9063 292.31 82.9162 291.247 82.931C291.281 55.4549 291.274 27.9838 291.247 0.507722Z" fill="black"/>
<path d="M306.064 0.488003C306.42 0.51265 307.141 0.566873 307.497 0.596449C307.12 1.79428 307.058 3.00689 307.333 4.21951C307.442 7.35949 307.415 10.5044 307.333 13.6394C307.333 14.0091 307.326 14.7387 307.326 15.1035C307.429 16.8287 307.353 18.554 307.442 20.2743L306.997 20.299C306.997 20.6637 306.99 21.3933 306.99 21.7531H307.429C307.381 22.9115 307.381 24.065 307.429 25.2234H306.99C306.99 25.5881 306.99 26.3177 306.99 26.6824H307.436C307.36 28.3288 307.36 29.9802 307.442 31.6266L306.99 31.6315C306.99 31.9963 306.99 32.7258 306.99 33.0856L307.436 33.1004C307.243 35.0623 307.751 37.0833 306.928 38.991L307.436 39.0107C307.113 40.5388 307.998 42.3429 306.832 43.6936C307.744 44.433 307.257 45.5273 307.484 46.4195H306.942C306.983 46.7399 307.058 47.3807 307.093 47.7011C307.216 48.1102 307.456 48.9334 307.58 49.3475L306.997 49.3721C306.99 49.7369 306.99 50.4714 306.99 50.8361H307.436C307.099 52.1966 308.053 53.9219 306.756 55.0359L307.292 55.45C307.497 58.9202 307.394 62.4053 307.319 65.8854C307.326 66.2551 307.326 66.9896 307.333 67.3593C307.49 72.5252 307.291 77.6961 307.436 82.8669C307.093 82.8866 306.4 82.9359 306.05 82.9606C306.146 55.4697 306.118 27.9789 306.064 0.488003Z" fill="black"/>
<path d="M317.08 0.488003C318.02 0.497862 318.987 0.507721 319.948 0.507721C319.92 27.9838 319.9 55.4599 319.954 82.9359C318.994 82.931 318.034 82.931 317.08 82.9409C317.087 55.4549 317.101 27.9739 317.08 0.488003Z" fill="black"/>
<path d="M327.363 0.50279C329.277 0.507719 331.197 0.50772 333.125 0.497861C333.098 10.953 333.132 21.413 333.104 31.873C333.125 32.5286 333.2 33.1892 333.324 33.8398C332.844 41.0514 333.248 48.2926 333.111 55.5141C333.118 64.658 333.104 73.8019 333.125 82.9458C331.204 82.9162 329.284 82.9113 327.37 82.9458C327.425 55.4648 327.438 27.9838 327.363 0.50279Z" fill="black"/>
<path d="M344.025 0.532367C345.369 0.522509 346.721 0.51758 348.072 0.51758C348.024 27.9887 347.99 55.4599 348.086 82.931C346.728 82.9211 345.363 82.9162 344.011 82.9113C344.073 55.4549 344.039 27.9936 344.025 0.532367Z" fill="black"/>
<path d="M365.749 0.512649C368.363 0.527437 370.983 0.522508 373.604 0.512649C373.473 27.9887 373.508 55.4697 373.59 82.9458C370.97 82.9162 368.356 82.9113 365.743 82.931C365.825 55.4549 365.811 27.9838 365.749 0.512649Z" fill="black"/>
<path d="M392.44 0.478145C393.119 0.502792 393.798 0.522509 394.491 0.547156C394.45 27.9887 394.416 55.4352 394.505 82.8817C393.812 82.9113 393.126 82.9409 392.447 82.9704C392.475 55.4746 392.475 27.9789 392.44 0.478145Z" fill="black"/>
<path d="M402.202 0.483076C404.088 0.52744 405.981 0.532367 407.881 0.492933C407.881 27.9739 407.854 55.4549 407.895 82.9359C405.995 82.9113 404.102 82.9113 402.208 82.9556C402.243 55.4648 402.263 27.9739 402.202 0.483076Z" fill="black"/>
<path d="M415.303 0.502792C416.36 0.51265 417.423 0.51758 418.493 0.522509C418.479 27.9887 418.473 55.4549 418.5 82.9211C417.43 82.9211 416.367 82.9211 415.31 82.9261C415.31 55.45 415.324 27.9789 415.303 0.502792Z" fill="black"/>
<path d="M39.9644 0.478145L41.6793 0.502792C41.6724 27.9838 41.6793 55.4648 41.6724 82.9458L39.9644 82.9557C39.9849 55.4648 39.9849 27.9739 39.9644 0.478145Z" fill="black"/>
<path d="M62.6355 0.492931C63.9594 0.507719 65.2833 0.522508 66.6141 0.532366C66.5798 27.9936 66.5798 55.45 66.6141 82.9113C65.2901 82.9162 63.9594 82.9261 62.6355 82.9458C62.6561 55.4599 62.6561 27.9739 62.6355 0.492931Z" fill="black"/>
<path d="M108.725 0.512649C110.742 0.522508 112.759 0.522509 114.769 0.532367C114.721 27.9936 114.7 55.4549 114.782 82.9162C112.766 82.9211 110.756 82.9211 108.739 82.931C108.753 55.4599 108.78 27.9887 108.725 0.512649Z" fill="black"/>
<path d="M121.553 0.50772C122.918 0.512649 124.29 0.507719 125.655 0.492931C125.614 27.9739 125.634 55.4549 125.648 82.9359C124.283 82.9211 122.918 82.9162 121.553 82.931C121.567 55.4549 121.574 27.9838 121.553 0.50772Z" fill="black"/>
<path d="M357.147 0.527436L358.396 0.473215C358.334 27.9739 358.327 55.4746 358.403 82.9754L357.141 82.9014C357.182 55.4401 357.168 27.9838 357.147 0.527436Z" fill="black"/>
</g>
<defs>
<filter id="filter0_d_2_42" x="0.5" y="0" width="422" height="91" filterUnits="userSpaceOnUse" color-interpolation-filters="sRGB">
<feFlood flood-opacity="0" result="BackgroundImageFix"/>
<feColorMatrix in="SourceAlpha" type="matrix" values="0 0 0 0 0 0 0 0 0 0 0 0 0 0 0 0 0 0 127 0" result="hardAlpha"/>
<feOffset dy="4"/>
<feGaussianBlur stdDeviation="2"/>
<feComposite in2="hardAlpha" operator="out"/>
<feColorMatrix type="matrix" values="0 0 0 0 0 0 0 0 0 0 0 0 0 0 0 0 0 0 0.25 0"/>
<feBlend mode="normal" in2="BackgroundImageFix" result="effect1_dropShadow_2_42"/>
<feBlend mode="normal" in="SourceGraphic" in2="effect1_dropShadow_2_42" result="shape"/>
</filter>
</defs>
</svg>
